<svg xmlns="http://www.w3.org/2000/svg" viewBox="0 0 288 285.81"><title>favicon</title><path d="M165.47,174.8l-17-.76c0.26-43.49-1-86.87-4.3-130.2-3.31,43.28-4.61,86.62-4.18,130.47-3,0-5.81-.07-8.62,0s-5.63.33-8.6,0.51c-1.45-13.78-5.8-26.56-11.07-39-3.88-9.17-8.36-18.09-12.33-27.23-3.9-9-6.94-18.26-8-28a57.38,57.38,0,0,1,5.41-31A75,75,0,0,1,122,19.77,162.87,162.87,0,0,0,142.41,2.65c0.51-.5,1-1,1.66-1.55,3.64,3.35,7.13,6.75,10.82,9.9,3.21,2.74,6.56,5.32,10,7.77,15.13,10.79,26.23,24.45,30.8,42.82a57.11,57.11,0,0,1-1.87,33.08,263.32,263.32,0,0,1-10.38,25.87c-6.93,14.71-13.19,29.62-16.59,45.59C166.25,168.89,165.95,171.71,165.47,174.8Z" transform="translate(0 -1.09)"/><path d="M117.17,175.26l-22.31,3.39c-0.93-2.55-1.8-5.23-2.88-7.82a42.28,42.28,0,0,0-9.67-14.67c-8.78-8.35-21.91-8.93-30.3-1.27-5.25,4.79-7.34,11.07-7.82,18-0.19,2.67,0,5.36,0,8.25a38.5,38.5,0,0,1-15.38-1.88C13.6,174.27,4.7,163.5,1.4,148.23-2.62,129.6,1.94,113,16,100c15.38-14.25,33.35-15.65,52.24-8,12.53,5.08,21.57,14.41,28.82,25.56,9.13,14,14.45,29.61,17.92,45.87C115.81,167.37,116.44,171.3,117.17,175.26Zm-66.59-45.1,0.13-.51c-2.21-1.17-4.41-2.36-6.62-3.52C40,124,40,124,40.76,119.37c0.41-2.45.73-4.91,1.09-7.36L41,111.49c-2,2.12-3.84,4.31-5.88,6.35-3,3-1.91,2.56-5.39.84-2.62-1.29-5.2-2.69-7.79-4a13.52,13.52,0,0,0,1.39,4.09c1.11,2.36,3.39,4.94,3,7s-3.35,3.94-5.21,5.87c-1,1-1.94,1.95-2.91,2.92a55.07,55.07,0,0,0,10.2-1.07c1.57-.31,2.38.05,3,1.52,1.41,3.07,3,6.05,4.52,9.07a39.38,39.38,0,0,0,2.11-9.44c0.19-2.32,1.34-2.86,3.29-3.09C44.48,131.17,47.52,130.63,50.58,130.16Z" transform="translate(0 -1.09)"/><path d="M193.33,178.74l-22.18-3.43c0.45-2.76.85-5.53,1.37-8.27,2.93-15.53,7.49-30.5,15.41-44.28,7.08-12.3,16.2-22.65,29.26-28.86s26.82-8.43,40.54-2.54c18.08,7.77,28.45,21.66,30.06,41.53,0.95,11.67-1.38,22.64-8.51,32.2s-17.1,14.4-28.73,16.09c-1.8.26-3.62,0.33-5.43,0.46a9,9,0,0,1-1.3-.12,79.4,79.4,0,0,0-.07-8.92,41.25,41.25,0,0,0-2-9.54c-4.2-11.39-16.33-16.68-27.45-11.79s-17.55,14-20.53,25.62C193.6,177.5,193.47,178.13,193.33,178.74Zm43.56-44.11a15.58,15.58,0,0,0,1.71,0c2.73-.39,5.47-0.79,8.19-1.22,1.6-.26,3-0.34,3.62,1.67a16.37,16.37,0,0,0,1.24,2.55l3.17,6.29,0.58-.12c0.51-3,1.1-6.06,1.5-9.11,0.26-1.95.82-3.09,3.14-3.24,3.12-.2,6.21-0.91,9.32-1.4l0.11-.58-7.79-4.11c-3-1.56-2.93-1.54-2.36-4.75,0.52-2.88.94-5.78,1.4-8.67l-0.51-.3c-2.37,2.32-4.81,4.57-7.07,7a2.4,2.4,0,0,1-3.51.52c-2.85-1.63-5.83-3-8.76-4.54l-0.43.44c1.24,2.51,2.47,5,3.71,7.52,1.62,3.27,1.62,3.26-1,5.86C241.14,130.38,239.17,132.37,236.89,134.64Z" transform="translate(0 -1.09)"/><path d="M145,256c0.72-6.12,1.66-12.22,2.1-18.35,0.6-8.35.81-16.73,1.19-25.09,0-.94-0.09-1.95,1.35-2,5.67-.25,11.34-0.54,17.09-0.82,0.86,3.55,1.58,7,2.54,10.42a91.15,91.15,0,0,0,13.51,28.44,3,3,0,0,1,.25,3.72c-8.73,15.39-21.28,26.63-37.12,34.28a4,4,0,0,1-3,0,83.44,83.44,0,0,1-36.78-33.74c-1-1.79-.87-3,0.3-4.66a93.75,93.75,0,0,0,15.4-37.43c0-.21.1-0.42,0.23-0.92,0.64,0,1.34,0,2,0,4.8,0.23,9.6.53,14.4,0.67,1.6,0,2.12.6,2.16,2.19,0.14,6.26.18,12.54,0.69,18.78,0.65,8,1.73,15.9,2.64,23.84a2.48,2.48,0,0,0,.34.72H145Z" transform="translate(0 -1.09)"/><path d="M171.69,209.25c6.07-1,11.88-1.89,17.67-2.85,1.3-.22,1.56.52,1.89,1.52A28.4,28.4,0,0,0,199,220.36q11.21,10.27,25.67,5.42c0.75-.25,1.49-0.54,2.27-0.82-0.85,9.11-7.46,19.62-16.59,22.84-9.3,3.28-18.7.83-25.43-7-5.74-6.66-8.63-14.75-11.07-23C173.06,215,172.44,212.19,171.69,209.25Z" transform="translate(0 -1.09)"/><path d="M61.43,224.94c18.22,5.61,28.44.39,36.66-18.49l18.74,2.74c-0.16.89-.29,1.86-0.51,2.8-1.85,7.72-4.15,15.29-8,22.27-2.84,5.1-6.39,9.59-11.65,12.39a22.77,22.77,0,0,1-26.89-4.51C65.2,237.38,62.75,231.57,61.43,224.94Z" transform="translate(0 -1.09)"/><path d="M144.12,181.3c12.35,0.78,24.71,1.36,37,2.42,5.25,0.45,10.43,1.86,15.61,3a14.26,14.26,0,0,1,4,1.64c3.63,2.08,3.78,5.79.07,7.65a29.58,29.58,0,0,1-9.25,3c-10.09,1.29-20.21,2.66-30.36,3.08-12.36.51-24.77,0.39-37.14,0-10.38-.33-20.77-1.23-30.91-3.83a35.09,35.09,0,0,1-5.51-2,4.47,4.47,0,0,1-3-4,4.25,4.25,0,0,1,3.09-4.12A75.29,75.29,0,0,1,98.84,185C113.8,182.29,128.93,181.82,144.12,181.3Zm53.49,10.37c-3-.72-5.95-1.78-9-2.11-9.75-1.07-19.51-2.19-29.3-2.71a281.57,281.57,0,0,0-60.1,2.72c-2.92.47-5.76,1.41-8.63,2.14C104.37,199.78,182.49,199.95,197.61,191.67Z" transform="translate(0 -1.09)"/></svg>